<svg width="110" height="48" viewBox="0 0 110 48" fill="none" xmlns="http://www.w3.org/2000/svg">
  <path d="M98.9706 29.6723C95.9246 29.6723 93.7726 27.2913 93.7726 24.1662C93.7726 21.0411 95.9261 18.66 98.9706 18.66C102.015 18.66 104.108 21.0411 104.108 24.1662C104.108 27.2913 101.986 29.6723 98.9706 29.6723ZM98.4783 32.9508C100.94 32.9508 103.031 31.9926 104.353 29.9821C104.599 31.9303 106.014 32.6425 107.798 32.6425H109.213V29.5493H108.598C107.583 29.5493 107.337 29.0543 107.337 27.9093V15.6913H104.077V18.1969C102.97 16.4339 100.878 15.3816 98.4783 15.3816C94.203 15.3816 90.2644 18.9698 90.2644 24.1662C90.2644 29.3625 94.2015 32.9508 98.4783 32.9508V32.9508ZM81.6836 28.7126C81.6836 31.496 83.4067 32.641 85.4666 32.641H89.4353V29.5478H86.5433C85.3443 29.5478 85.0981 29.0831 85.0981 27.9078V18.783H89.4353V15.6898H85.0981V9.99994H81.6836V28.7126V28.7126ZM66.1499 32.641H69.5644V25.3719H70.7031L76.5173 32.641H80.8243L73.4108 23.4236L79.1012 15.6913H75.2563L70.611 22.2179H69.5644V9.99994H66.1499V32.641V32.641ZM55.0758 15.3816C50.3081 15.3816 46.3711 18.9698 46.3711 24.1662C46.3711 29.3625 50.3081 32.9508 55.0758 32.9508C59.8434 32.9508 63.7804 29.3625 63.7804 24.1662C63.7804 18.9698 59.8434 15.3816 55.0758 15.3816V15.3816ZM55.0758 29.6708C52.0297 29.6708 49.8777 27.2897 49.8777 24.1646C49.8777 21.0395 52.0312 18.6585 55.0758 18.6585C58.1203 18.6585 60.2738 21.0395 60.2738 24.1646C60.2738 27.2897 58.1203 29.6708 55.0758 29.6708Z" fill="#191919"/>
  <path fill-rule="evenodd" clip-rule="evenodd" d="M19.8031 6.25564L19.0649 15.374C18.7155 15.3317 18.3616 15.309 18 15.309C17.5508 15.309 17.1091 15.3422 16.6779 15.4088L16.2574 10.9873C16.2438 10.8496 16.3542 10.7286 16.4934 10.7301H17.2482L16.8837 6.25564C16.8716 6.11799 16.9805 6 17.1181 6H19.5656C19.7033 6 19.8107 6.11799 19.8001 6.25564H19.8031ZM13.6254 6.70793C13.5891 6.57481 13.4469 6.50221 13.3168 6.5491L11.016 7.38712C10.8859 7.43401 10.8254 7.58225 10.8829 7.7078L12.7541 11.7875L12.0431 12.0446C11.913 12.0915 11.8495 12.2413 11.91 12.3683L13.816 16.3799C14.5073 15.9987 15.256 15.7128 16.0472 15.5313L13.6254 6.70793ZM7.97703 9.2477L13.2714 16.7067C12.5998 17.1438 11.9932 17.6702 11.4668 18.2708L8.30074 15.1516C8.20091 15.0533 8.20847 14.8915 8.31436 14.8022L8.89371 14.3182L5.74129 11.1249C5.64448 11.0266 5.65205 10.8678 5.75793 10.7785L7.63214 9.20383C7.73803 9.11458 7.89686 9.13576 7.97703 9.2477ZM3.53581 13.5664C3.42236 13.4892 3.26656 13.524 3.19697 13.642L1.97322 15.7628C1.90364 15.8823 1.95204 16.035 2.07608 16.094L6.13157 18.0166L5.75188 18.6701C5.6823 18.7911 5.73071 18.9454 5.85777 19.0029L9.89813 20.8499C10.1916 20.0981 10.5819 19.3977 11.0599 18.7654L3.53581 13.5664ZM0.548278 19.3296C0.572481 19.1935 0.705597 19.1073 0.840225 19.1421L9.68938 21.4534C9.46097 22.2007 9.33239 22.9918 9.31424 23.8102L4.88361 23.4547C4.74444 23.4441 4.64612 23.3155 4.67032 23.1779L4.80344 22.4351L0.336504 22.0161C0.19885 22.0025 0.102039 21.8755 0.126242 21.7393L0.549791 19.3281L0.548278 19.3296ZM0.213977 25.3062C0.0763233 25.3198 -0.020488 25.4469 0.00371486 25.583L0.428777 27.9942C0.45298 28.1303 0.587608 28.2166 0.720723 28.1818L5.0621 27.0473L5.19219 27.79C5.2164 27.9276 5.35405 28.0139 5.48716 27.976L9.76955 26.7931C9.51693 26.0504 9.36113 25.2653 9.32029 24.4485L0.213977 25.3062ZM1.62984 31.6428C1.56026 31.5233 1.60866 31.3705 1.7327 31.3115L9.99494 27.3937C10.3096 28.1349 10.7256 28.8231 11.2232 29.4403L7.60189 32.0164C7.48844 32.0981 7.3296 32.0618 7.26153 31.9423L6.88488 31.2873L3.19395 33.8392C3.0805 33.9178 2.92469 33.883 2.85511 33.7635L1.62984 31.6428ZM11.6407 29.9244L5.21337 36.4349C5.11656 36.5332 5.12412 36.692 5.23001 36.7813L7.10573 38.3545C7.21162 38.4437 7.37045 38.4225 7.45062 38.3106L10.0464 34.6499L10.6242 35.137C10.7301 35.2263 10.892 35.2051 10.9706 35.0901L13.4907 31.434C12.807 31.0165 12.1853 30.5067 11.6407 29.9244ZM10.3716 40.3769C10.2415 40.33 10.181 40.1818 10.2385 40.0562L14.0504 31.7396C14.7523 32.0981 15.5086 32.3658 16.3043 32.5231L15.1864 36.8221C15.1517 36.9568 15.0079 37.0324 14.8779 36.984L14.1684 36.7238L12.9795 41.0516C12.9431 41.1847 12.801 41.2573 12.6709 41.2104L10.3701 40.3739L10.3716 40.3769ZM16.9366 32.6245L16.1984 41.7444C16.1878 41.882 16.2952 42 16.4329 42H18.8804C19.0181 42 19.127 41.882 19.1149 41.7444L18.7503 37.2714H19.5051C19.6443 37.2729 19.7532 37.1534 19.7411 37.0142L19.3206 32.5927C18.8895 32.6578 18.4478 32.6926 17.9985 32.6926C17.6385 32.6926 17.2845 32.6683 16.9351 32.626L16.9366 32.6245ZM25.7631 7.94227C25.8206 7.81671 25.7585 7.66999 25.63 7.62158L23.3292 6.78507C23.2006 6.73818 23.0569 6.81079 23.0206 6.94391L21.8316 11.2716L21.1222 11.0115C20.9921 10.9631 20.8484 11.0387 20.8136 11.1733L19.6957 15.4723C20.4914 15.6296 21.2477 15.8974 21.9496 16.2559L25.7631 7.94075V7.94227ZM30.7867 11.5666L24.3593 18.0771C23.8163 17.4933 23.1946 16.9835 22.5093 16.566L25.0294 12.9099C25.1081 12.7964 25.2699 12.7737 25.3758 12.8645L25.9537 13.3516L28.5494 9.69091C28.6296 9.57897 28.7884 9.5578 28.8943 9.64704L30.77 11.2202C30.8759 11.3095 30.8835 11.4698 30.7867 11.5666ZM34.2673 16.69C34.3929 16.631 34.4398 16.4783 34.3702 16.3588L33.1449 14.238C33.0754 14.1185 32.9195 14.0837 32.8061 14.1624L29.1152 16.7142L28.7385 16.0592C28.6689 15.9382 28.5101 15.9034 28.3982 15.9851L24.7768 18.5612C25.2745 19.1799 25.6905 19.8666 26.0051 20.6078L34.2673 16.69ZM35.5713 20.0088L35.9963 22.42C36.0205 22.5577 35.9222 22.6847 35.7861 22.6968L26.6798 23.5515C26.6389 22.7347 26.4831 21.9496 26.2305 21.2069L30.5129 20.0255C30.646 19.9876 30.7836 20.0754 30.8078 20.2115L30.9364 20.9542L35.2778 19.8197C35.4109 19.7849 35.5456 19.8712 35.5698 20.0073L35.5713 20.0088ZM35.1598 28.8594C35.2929 28.8942 35.4276 28.808 35.4518 28.6719L35.8753 26.2607C35.8995 26.1245 35.8012 25.9975 35.6651 25.9839L31.1981 25.5649L31.3312 24.8221C31.3554 24.6845 31.2571 24.5574 31.1179 24.5453L26.6873 24.1898C26.6692 25.0097 26.5406 25.7993 26.3122 26.5481L35.1613 28.8579L35.1598 28.8594ZM32.8031 34.361C32.7335 34.479 32.5777 34.5138 32.4642 34.4367L24.9372 29.2376C25.4152 28.6053 25.8069 27.905 26.0989 27.1532L30.1392 29.0016C30.2663 29.0591 30.3162 29.2149 30.2451 29.3344L29.8655 29.9879L33.9209 31.9105C34.045 31.9695 34.0934 32.1223 34.0238 32.2418L32.8 34.3625L32.8031 34.361ZM22.7286 31.2948L28.023 38.7553C28.1032 38.8673 28.2605 38.8884 28.3679 38.7992L30.2421 37.2245C30.348 37.1353 30.3556 36.9749 30.2587 36.8781L27.1063 33.6849L27.6857 33.2008C27.7916 33.1116 27.7991 32.9497 27.6993 32.8529L24.5333 29.7338C24.0069 30.3328 23.4003 30.8592 22.7286 31.2964V31.2948ZM22.6833 41.4524C22.5547 41.4993 22.411 41.4267 22.3747 41.2936L19.9514 32.4717C20.7425 32.2902 21.4913 32.0028 22.1826 31.6231L24.0885 35.6347C24.149 35.7602 24.087 35.9115 23.9554 35.9584L23.2445 36.2156L25.1156 40.2952C25.1731 40.4208 25.1111 40.5675 24.9825 40.6159L22.6818 41.4539L22.6833 41.4524Z" fill="#191919"/>
</svg>
